# xmcd
#
# Track frame offsets:
# 150
# 19847
# 31772
#
# Disc length: 617 seconds
#
#
# Revision: 0
# Processed by: cddbd v1.5.1PL0 Copyright (c) Steve Scherf et al.
# Submitted via: FreeRIP 2.941 
#
DISCID=17026703
DTITLE=RIAN E RAMON - BORBULHAS DE AMOR
DYEAR=2005
DGENRE=SERTANEJO
TTITLE0=RIAN E RAMON - BORBULHAS DE AMOR
TTITLE1=RIAN E RAMON - ETERNO APAIXONADO
TTITLE2=RIAN E RAMON - RECANTO PANTANAL
EXTD=
EXTT0=
EXTT1=
EXTT2=
PLAYORDER=
